<svg width="24" height="24" viewBox="0 0 24 24" fill="none" xmlns="http://www.w3.org/2000/svg">
<g clip-path="url(#clip0)">
<path d="M23.9768 7.05607C23.9206 5.78085 23.7144 4.90416 23.419 4.14449C23.1142 3.33811 22.6454 2.61617 22.0311 2.01602C21.431 1.40652 20.7043 0.932921 19.9072 0.632936C19.1432 0.337529 18.2711 0.131312 16.9959 0.0750879C15.7111 0.0141019 15.3033 0 12.0448 0C8.78637 0 8.37852 0.0141019 7.09854 0.0703262C5.82333 0.126551 4.94663 0.332951 4.18715 0.628174C3.38059 0.932921 2.65865 1.40176 2.0585 2.01602C1.449 2.61617 0.975585 3.34288 0.675416 4.13991C0.38001 4.90416 0.173793 5.77609 0.117568 7.0513C0.0565823 8.33604 0.0424805 8.74389 0.0424805 12.0023C0.0424805 15.2608 0.0565823 15.6686 0.112807 16.9486C0.169031 18.2238 0.375431 19.1005 0.670838 19.8602C0.975585 20.6666 1.449 21.3885 2.0585 21.9887C2.65865 22.5982 3.38536 23.0718 4.18239 23.3717C4.94663 23.6672 5.81857 23.8734 7.09396 23.9296C8.37375 23.986 8.78179 23.9999 12.0402 23.9999C15.2987 23.9999 15.7065 23.986 16.9865 23.9296C18.2617 23.8734 19.1384 23.6672 19.8979 23.3717C21.5108 22.7482 22.786 21.4729 23.4096 19.8602C23.7049 19.096 23.9113 18.2238 23.9675 16.9486C24.0237 15.6686 24.0378 15.2608 24.0378 12.0023C24.0378 8.74389 24.0331 8.33604 23.9768 7.05607ZM21.8156 16.8549C21.7639 18.027 21.5671 18.6599 21.403 19.0819C20.9997 20.1274 20.1699 20.9572 19.1243 21.3605C18.7024 21.5246 18.0648 21.7215 16.8973 21.7729C15.6315 21.8293 15.2518 21.8433 12.0496 21.8433C8.84736 21.8433 8.46294 21.8293 7.20165 21.7729C6.02955 21.7215 5.39661 21.5246 4.97465 21.3605C4.45435 21.1682 3.98075 20.8634 3.59633 20.4649C3.19782 20.0758 2.89307 19.6069 2.70077 19.0866C2.53668 18.6647 2.3398 18.027 2.28834 16.8596C2.23193 15.5937 2.21801 15.2139 2.21801 12.0117C2.21801 8.80946 2.23193 8.42505 2.28834 7.16394C2.3398 5.99183 2.53668 5.3589 2.70077 4.93694C2.89307 4.41645 3.19782 3.94303 3.6011 3.55843C3.99009 3.15992 4.45893 2.85517 4.97942 2.66306C5.40137 2.49896 6.03907 2.30209 7.20641 2.25044C8.47228 2.19422 8.85212 2.18011 12.0542 2.18011C15.2611 2.18011 15.6408 2.19422 16.9021 2.25044C18.0742 2.30209 18.7071 2.49896 19.1291 2.66306C19.6494 2.85517 20.123 3.15992 20.5074 3.55843C20.9059 3.94761 21.2107 4.41645 21.403 4.93694C21.5671 5.3589 21.7639 5.99641 21.8156 7.16394C21.8718 8.42981 21.8859 8.80946 21.8859 12.0117C21.8859 15.2139 21.8718 15.589 21.8156 16.8549Z" fill="#191919"/>
<path d="M12.0442 5.83789C8.64049 5.83789 5.87891 8.59929 5.87891 12.0032C5.87891 15.407 8.64049 18.1684 12.0442 18.1684C15.448 18.1684 18.2094 15.407 18.2094 12.0032C18.2094 8.59929 15.448 5.83789 12.0442 5.83789ZM12.0442 16.0024C9.83604 16.0024 8.04492 14.2115 8.04492 12.0032C8.04492 9.79484 9.83604 8.0039 12.0442 8.0039C14.2525 8.0039 16.0434 9.79484 16.0434 12.0032C16.0434 14.2115 14.2525 16.0024 12.0442 16.0024V16.0024Z" fill="#191919"/>
<path d="M19.893 5.59361C19.893 6.38844 19.2485 7.03291 18.4535 7.03291C17.6586 7.03291 17.0142 6.38844 17.0142 5.59361C17.0142 4.79859 17.6586 4.1543 18.4535 4.1543C19.2485 4.1543 19.893 4.79859 19.893 5.59361Z" fill="#191919"/>
</g>
<defs>
<clipPath id="clip0">
<rect width="24" height="24" fill="white"/>
</clipPath>
</defs>
</svg>
