<svg width="24" height="24" viewBox="0 0 24 24" fill="none" xmlns="http://www.w3.org/2000/svg">
<g clip-path="url(#clip0)">
<path d="M10.8188 16.9046C8.9582 16.7106 7.28063 16.2524 5.84437 15.129C5.66615 14.9893 5.48216 14.8546 5.31953 14.6985C4.69088 14.0947 4.62754 13.4032 5.12498 12.6906C5.55053 12.0808 6.26489 11.9177 7.00741 12.2678C7.15118 12.3357 7.28817 12.4204 7.41938 12.5114C10.0961 14.3506 13.7732 14.4014 16.46 12.5941C16.7262 12.39 17.0107 12.2236 17.3405 12.1386C17.9817 11.974 18.5797 12.2095 18.9238 12.7705C19.317 13.4112 19.3119 14.0366 18.8276 14.5341C18.0845 15.2967 17.191 15.8484 16.1981 16.2335C15.2593 16.5975 14.231 16.7807 13.2132 16.9024C13.3668 17.0695 13.4392 17.1517 13.5352 17.2482C14.9172 18.6368 16.3052 20.0195 17.6826 21.4123C18.1519 21.8868 18.2499 22.4753 17.9915 23.0272C17.709 23.6305 17.0766 24.0274 16.4565 23.9849C16.0636 23.9578 15.7572 23.7622 15.485 23.488C14.4421 22.4386 13.3796 21.4085 12.3578 20.3392C12.0605 20.0283 11.9175 20.0871 11.655 20.357C10.6059 21.4371 9.5396 22.5006 8.46705 23.5581C7.98544 24.0329 7.41235 24.1184 6.85383 23.8472C6.26012 23.5594 5.88232 22.9533 5.91148 22.3443C5.93159 21.9323 6.13418 21.6176 6.41696 21.3353C7.78461 19.9697 9.14848 18.6006 10.5129 17.2327C10.6031 17.1417 10.6873 17.0451 10.8188 16.9046Z" fill="#191919"/>
<path d="M11.9523 12.1479C8.63313 12.1366 5.91141 9.38501 5.93077 6.06054C5.94987 2.69937 8.67334 -0.0092764 12.0252 2.38782e-05C15.3839 0.0090728 18.0797 2.75668 18.0629 6.15279C18.0458 9.47047 15.3052 12.1595 11.9523 12.1479ZM14.9689 6.06858C14.9631 4.41791 13.6485 3.1038 12.0011 3.1023C10.3399 3.10054 9.01343 4.43852 9.02625 6.10427C9.03857 7.74866 10.3645 9.05347 12.0164 9.04744C13.6633 9.04165 14.9744 7.719 14.9689 6.06858Z" fill="#191919"/>
</g>
<defs>
<clipPath id="clip0">
<rect width="24" height="24" fill="white"/>
</clipPath>
</defs>
</svg>
