<svg width="14" height="18" viewBox="0 0 14 18" fill="none" xmlns="http://www.w3.org/2000/svg">
<path fill-rule="evenodd" clip-rule="evenodd" d="M6.82149 12.506C6.99049 12.506 7.16049 12.549 7.31349 12.635L12.0005 15.286V2.334C12.0005 2.133 11.8795 2 11.8005 2H2.20049C2.12049 2 2.00049 2.133 2.00049 2.334V15.234L6.30649 12.649C6.46549 12.554 6.64349 12.506 6.82149 12.506ZM1.00049 18C0.830488 18 0.660488 17.957 0.507488 17.87C0.194488 17.693 0.000488281 17.36 0.000488281 17V2.334C0.000488281 1.047 0.987488 0 2.20049 0H11.8005C13.0135 0 14.0005 1.047 14.0005 2.334V17C14.0005 17.356 13.8115 17.685 13.5045 17.864C13.1965 18.044 12.8185 18.047 12.5085 17.871L6.83649 14.663L1.51449 17.858C1.35649 17.952 1.17849 18 1.00049 18Z" fill="#8D989D"/>
</svg>
