<svg width="24" height="24" viewBox="0 0 24 24" fill="none" xmlns="http://www.w3.org/2000/svg">
<g clip-path="url(#clip0)">
<path d="M23.8728 17.5207C23.8437 17.458 23.8166 17.4061 23.7915 17.3645C23.3751 16.6145 22.5793 15.694 21.4047 14.6027L21.3799 14.5777L21.3675 14.5654L21.3549 14.5529H21.3423C20.8093 14.0447 20.4717 13.703 20.3303 13.5281C20.0716 13.1948 20.0137 12.8575 20.1551 12.5157C20.2549 12.2575 20.6301 11.7122 21.2797 10.879C21.6214 10.4374 21.892 10.0835 22.0918 9.81687C23.5331 7.90075 24.158 6.67632 23.9663 6.14311L23.8919 6.0185C23.8418 5.94349 23.7127 5.87486 23.5047 5.81227C23.2962 5.74982 23.0297 5.73949 22.7047 5.78111L19.106 5.80597C19.0477 5.78531 18.9645 5.78724 18.856 5.81227C18.7477 5.83731 18.6935 5.84987 18.6935 5.84987L18.6309 5.88116L18.5812 5.91876C18.5395 5.94362 18.4937 5.98734 18.4436 6.04984C18.3939 6.11212 18.3523 6.18521 18.319 6.2685C17.9272 7.2765 17.4817 8.21368 16.9818 9.08001C16.6735 9.59659 16.3904 10.0443 16.1319 10.4234C15.8737 10.8023 15.6571 11.0815 15.4823 11.2604C15.3073 11.4396 15.1493 11.5831 15.0074 11.6915C14.8657 11.8 14.7575 11.8458 14.6827 11.829C14.6076 11.8123 14.5369 11.7956 14.47 11.779C14.3534 11.704 14.2597 11.602 14.189 11.4728C14.118 11.3437 14.0702 11.1812 14.0452 10.9855C14.0204 10.7895 14.0057 10.621 14.0015 10.4794C13.9976 10.3379 13.9994 10.1377 14.0078 9.8795C14.0165 9.62114 14.0204 9.44634 14.0204 9.35469C14.0204 9.03808 14.0265 8.69446 14.0389 8.32376C14.0515 7.95305 14.0617 7.65933 14.0703 7.44295C14.0788 7.22634 14.0827 6.99718 14.0827 6.75559C14.0827 6.51399 14.068 6.32452 14.0389 6.18701C14.0102 6.04967 13.9661 5.91635 13.9081 5.78711C13.8496 5.658 13.7641 5.55812 13.6519 5.48722C13.5395 5.4164 13.3997 5.3602 13.2333 5.31845C12.7917 5.21853 12.2295 5.16448 11.5462 5.15607C9.99683 5.13944 9.00126 5.23949 8.55974 5.4561C8.3848 5.54761 8.22649 5.67266 8.08495 5.83083C7.93496 6.01417 7.91404 6.11422 8.02232 6.13068C8.52223 6.20557 8.87613 6.3847 9.08442 6.66792L9.15948 6.818C9.21786 6.92628 9.27616 7.11798 9.3345 7.39283C9.39275 7.66769 9.43035 7.97174 9.44689 8.30481C9.48847 8.91304 9.48847 9.43369 9.44689 9.86681C9.40518 10.3001 9.36579 10.6374 9.3282 10.879C9.2906 11.1206 9.23441 11.3164 9.15948 11.4663C9.08442 11.6162 9.03448 11.7079 9.00944 11.7411C8.98445 11.7744 8.96362 11.7954 8.94708 11.8036C8.8388 11.8451 8.72618 11.8662 8.60963 11.8662C8.4929 11.8662 8.35136 11.8078 8.18478 11.6912C8.01825 11.5745 7.84542 11.4142 7.66628 11.2101C7.48714 11.0059 7.28511 10.7206 7.0601 10.3541C6.83527 9.98756 6.60199 9.5544 6.3604 9.05458L6.16052 8.6921C6.03556 8.45891 5.86487 8.11937 5.64827 7.67377C5.43153 7.22801 5.23996 6.79681 5.07343 6.38028C5.00686 6.20535 4.90685 6.07216 4.77358 5.98051L4.71104 5.94292C4.66946 5.90966 4.60272 5.87434 4.51116 5.8367C4.41946 5.7991 4.32379 5.77214 4.22374 5.75555L0.799886 5.78041C0.450013 5.78041 0.21262 5.85967 0.0876216 6.01798L0.0375959 6.09286C0.0126049 6.13457 0 6.20119 0 6.29288C0 6.38453 0.024991 6.49701 0.0750167 6.63019C0.574836 7.8049 1.11838 8.93781 1.70564 10.0291C2.29291 11.1204 2.80323 11.9994 3.23631 12.6655C3.66947 13.332 4.11099 13.9611 4.56087 14.5524C5.01076 15.1439 5.30855 15.523 5.45425 15.6895C5.60012 15.8563 5.7147 15.9811 5.79799 16.0644L6.11045 16.3642C6.31037 16.5642 6.60396 16.8037 6.99135 17.0827C7.37882 17.3619 7.80778 17.6367 8.27845 17.9077C8.7492 18.1782 9.29686 18.399 9.92172 18.5697C10.5465 18.7406 11.1546 18.8092 11.7461 18.7761H13.1832C13.4746 18.7509 13.6954 18.6593 13.8455 18.5011L13.8952 18.4385C13.9286 18.3888 13.9599 18.3115 13.9888 18.2076C14.0181 18.1035 14.0326 17.9887 14.0326 17.864C14.0241 17.5058 14.0513 17.183 14.1136 16.8957C14.1759 16.6084 14.2469 16.3918 14.3263 16.2459C14.4057 16.1002 14.4952 15.9772 14.5949 15.8775C14.6947 15.7775 14.7659 15.717 14.8077 15.6962C14.8491 15.6752 14.8823 15.661 14.9073 15.6525C15.1072 15.5858 15.3425 15.6504 15.6135 15.8463C15.8843 16.0421 16.1383 16.2838 16.3758 16.5711C16.6133 16.8586 16.8985 17.1812 17.2317 17.5394C17.5651 17.8977 17.8566 18.164 18.1064 18.3392L18.3562 18.4891C18.523 18.5892 18.7396 18.6808 19.0063 18.7641C19.2724 18.8474 19.5056 18.8682 19.7058 18.8266L22.9046 18.7767C23.221 18.7767 23.4672 18.7243 23.6419 18.6203C23.8168 18.5162 23.9208 18.4015 23.9543 18.2767C23.9877 18.1518 23.9895 18.0101 23.9607 17.8517C23.931 17.6936 23.9018 17.5831 23.8728 17.5207Z" fill="#191919"/>
</g>
<defs>
<clipPath id="clip0">
<rect width="24" height="24" fill="white"/>
</clipPath>
</defs>
</svg>
